<svg width="333" height="109" viewBox="0 0 333 109">
  <g fill="none" fill-rule="evenodd" transform="translate(-18 -17)">
    <path fill="#FFF" d="M105.98324,95.208 C114.87924,95.208 121.27924,90.216 121.27924,82.536 C121.27924,75.56 116.67124,71.912 106.68724,69.736 C96.8312399,67.624 94.5272399,65.256 94.5272399,61.032 C94.5272399,56.872 98.2392399,53.672 104.06324,53.672 C108.67124,53.672 112.83124,55.144 116.99124,58.536 L119.93524,54.632 C115.39124,50.984 110.71924,49.128 104.19124,49.128 C95.6792399,49.128 89.4712399,54.312 89.4712399,61.352 C89.4712399,68.84 94.2072399,72.168 104.51124,74.408 C113.91924,76.392 116.15924,78.76 116.15924,82.92 C116.15924,87.464 112.19124,90.664 106.17524,90.664 C99.9672399,90.664 95.4872399,88.552 90.8152399,84.328 L87.6792399,88.04 C93.0552399,92.84 98.8792399,95.208 105.98324,95.208 Z M136.58324,94.568 L141.63924,94.568 L141.63924,75.048 L165.89524,75.048 L165.89524,70.44 L141.63924,70.44 L141.63924,54.44 L168.77524,54.44 L168.77524,49.768 L136.58324,49.768 L136.58324,94.568 Z M183.56724,94.568 L216.27124,94.568 L216.27124,89.96 L188.62324,89.96 L188.62324,74.28 L213.07124,74.28 L213.07124,69.672 L188.62324,69.672 L188.62324,54.376 L215.95124,54.376 L215.95124,49.768 L183.56724,49.768 L183.56724,94.568 Z M231.44724,94.568 L231.44724,49.768 L250.71124,49.768 C256.21524,49.768 260.63124,51.432 263.44724,54.248 C265.62324,56.424 266.90324,59.56 266.90324,63.208 C266.90324,70.632 261.78324,74.984 254.74324,76.264 L268.50324,94.568 L262.29524,94.568 L249.30324,77.16 L236.50324,77.16 L236.50324,94.568 L231.44724,94.568 Z M236.50324,72.616 L250.26324,72.616 C256.98324,72.616 261.78324,69.16 261.78324,63.272 C261.78324,57.768 257.55924,54.44 250.32724,54.44 L236.50324,54.44 L236.50324,72.616 Z M283.16724,94.568 L288.22324,94.568 L288.22324,49.768 L283.16724,49.768 L283.16724,94.568 Z M327.14324,95.336 C313.51124,95.336 304.35924,84.648 304.35924,72.168 C304.35924,59.816 313.63924,49 327.27124,49 C340.90324,49 350.05524,59.688 350.05524,72.168 C350.05524,84.52 340.77524,95.336 327.14324,95.336 Z M327.27124,90.664 C337.51124,90.664 344.80724,82.472 344.80724,72.168 C344.80724,61.992 337.38324,53.672 327.14324,53.672 C316.90324,53.672 309.60724,61.864 309.60724,72.168 C309.60724,82.344 317.03124,90.664 327.27124,90.664 Z"/>
    <path id="logo_circle" stroke="#FFF" stroke-linecap="round" stroke-width="6" d="M122.946493,64.4891112 C122.621142,62.2491301 122.151968,60.0562685 121.548731,57.920369 C115.492297,36.4761652 95.9223681,20.7737007 72.7158088,20.7737007 C44.67669,20.7737007 21.9464931,43.6968895 21.9464931,71.9740759 C21.9464931,95.7762565 38.0516254,115.784944 59.8717457,121.521776 C61.9754642,122.074875 64.1323049,122.495313 66.3329566,122.773701" transform="rotate(-44.5 72.445 71.772)"/>
  </g>
</svg>
