<?xml version="1.0" encoding="UTF-8"?><svg version="1.1" viewBox="0 0 64 64" xmlns="http://www.w3.org/2000/svg" xmlns:xlink="http://www.w3.org/1999/xlink"><!--Generated by IJSVG (https://github.com/curthard89/IJSVG)--><g fill="#FF7C1C"><path d="M27,0c-13.417,0 -27,2.748 -27,8v48c0,5.252 13.583,8 27,8c13.417,0 27,-2.748 27,-8v-48c0,-5.252 -13.583,-8 -27,-8Zm0,62c-15.489,0 -25,-3.495 -25,-6v-12.775c4.254,3.145 14.672,4.775 25,4.775c10.328,0 20.746,-1.63 25,-4.775v12.775c0,2.505 -9.511,6 -25,6Zm0,-16c-15.489,0 -25,-3.495 -25,-6v-12.775c4.254,3.145 14.672,4.775 25,4.775c10.328,0 20.746,-1.63 25,-4.775v12.775c0,2.505 -9.511,6 -25,6Zm0,-16c-15.489,0 -25,-3.495 -25,-6v-12.775c4.254,3.145 14.672,4.775 25,4.775c10.328,0 20.746,-1.63 25,-4.775v12.775c0,2.505 -9.511,6 -25,6Zm0,-16c-15.489,0 -25,-3.495 -25,-6c0,-2.505 9.511,-6 25,-6c15.489,0 25,3.495 25,6c0,2.505 -9.511,6 -25,6Z" transform="translate(6, 0)"></path></g></svg>