<svg xmlns:xlink="http://www.w3.org/1999/xlink" width="120" height="150" viewBox="0 0 120 150">
  <defs>
    <rect id="sferio-illustration-a" width="120" height="150"/>
  </defs>
  <g fill="none" fill-rule="evenodd">
    <rect width="120" height="70" y="40" fill="#F3F3F3"/>
    <use fill="#FFF" xlink:href="#sferio-illustration-a"/>
    <rect width="118" height="148" x="1" y="1" stroke="#979797" stroke-width="2"/>
    <circle cx="9" cy="9" r="3" stroke="#979797" stroke-width="2"/>
    <circle cx="9" cy="141" r="3" stroke="#979797" stroke-width="2"/>
    <circle cx="111" cy="9" r="3" stroke="#979797" stroke-width="2"/>
    <circle cx="111" cy="141" r="3" stroke="#979797" stroke-width="2"/>
    <rect width="84" height="6" x="18" y="6" fill="#979797" rx="3"/>
    <rect width="84" height="6" x="18" y="138" fill="#979797" rx="3"/>
    <rect width="108" height="58" x="6" y="46" fill="#DCDCDC" rx="6"/>
    <g transform="translate(20 60)">
      <rect width="80" height="30" fill="#3D3B48" rx="4.4"/>
      <path fill="#FFF" d="M24.7371144,19.5115232 C26.5074627,19.5115232 27.7810945,18.5197351 27.7810945,16.9939073 C27.7810945,15.607947 26.8640796,14.8831788 24.8772139,14.4508609 C22.9158209,14.0312583 22.4573134,13.5607947 22.4573134,12.7215894 C22.4573134,11.8950993 23.1960199,11.2593377 24.3550249,11.2593377 C25.2720398,11.2593377 26.0999005,11.5517881 26.9277612,12.2256954 L27.5136318,11.4500662 C26.6093532,10.725298 25.679602,10.3565563 24.3804975,10.3565563 C22.6865672,10.3565563 21.4511443,11.3864901 21.4511443,12.7851656 C21.4511443,14.2728477 22.3936318,14.9340397 24.4441791,15.3790728 C26.3164179,15.773245 26.7621891,16.2437086 26.7621891,17.0701987 C26.7621891,17.9729801 25.9725373,18.6087417 24.7753234,18.6087417 C23.5399005,18.6087417 22.6483582,18.1891391 21.718607,17.3499338 L21.0945274,18.0874172 C22.1643781,19.0410596 23.3233831,19.5115232 24.7371144,19.5115232 Z M30.8266667,19.3843709 L31.8328358,19.3843709 L31.8328358,15.5062252 L36.6599005,15.5062252 L36.6599005,14.5907285 L31.8328358,14.5907285 L31.8328358,11.4119205 L37.2330348,11.4119205 L37.2330348,10.4837086 L30.8266667,10.4837086 L30.8266667,19.3843709 Z M40.1767164,19.3843709 L46.6849751,19.3843709 L46.6849751,18.4688742 L41.1828856,18.4688742 L41.1828856,15.3536424 L46.0481592,15.3536424 L46.0481592,14.4381457 L41.1828856,14.4381457 L41.1828856,11.3992053 L46.6212935,11.3992053 L46.6212935,10.4837086 L40.1767164,10.4837086 L40.1767164,19.3843709 Z M49.7050746,19.3843709 L49.7050746,10.4837086 L53.5387065,10.4837086 C54.6340299,10.4837086 55.5128358,10.8143046 56.0732338,11.3737748 C56.5062687,11.8060927 56.760995,12.4291391 56.760995,13.1539073 C56.760995,14.6288742 55.7420896,15.4935099 54.3410945,15.7478146 L57.079403,19.3843709 L55.8439801,19.3843709 L53.2585075,15.9258278 L50.7112438,15.9258278 L50.7112438,19.3843709 L49.7050746,19.3843709 Z M50.7112438,15.0230464 L53.4495522,15.0230464 C54.7868657,15.0230464 55.7420896,14.3364238 55.7420896,13.1666225 C55.7420896,12.0731126 54.9014925,11.4119205 53.4622886,11.4119205 L50.7112438,11.4119205 L50.7112438,15.0230464 Z M59.9976119,19.3843709 L61.0037811,19.3843709 L61.0037811,10.4837086 L59.9976119,10.4837086 L59.9976119,19.3843709 Z M68.7490547,19.5369536 C66.0362189,19.5369536 64.2149254,17.4135099 64.2149254,14.9340397 C64.2149254,12.48 66.0616915,10.3311258 68.7745274,10.3311258 C71.4873632,10.3311258 73.3086567,12.4545695 73.3086567,14.9340397 C73.3086567,17.3880795 71.4618905,19.5369536 68.7490547,19.5369536 Z M68.7745274,18.6087417 C70.8123383,18.6087417 72.2642786,16.9811921 72.2642786,14.9340397 C72.2642786,12.9123179 70.7868657,11.2593377 68.7490547,11.2593377 C66.7112438,11.2593377 65.2593035,12.8868874 65.2593035,14.9340397 C65.2593035,16.9557616 66.7367164,18.6087417 68.7745274,18.6087417 Z"/>
      <path stroke="#FFF" stroke-linecap="round" stroke-width="1.2" d="M28.3118912,13.4084327 C28.2471447,12.9634033 28.1537768,12.5277355 28.0337297,12.1033846 C26.8284691,7.84294672 22.9339559,4.7232518 18.3157351,4.7232518 C12.735811,4.7232518 8.21238869,9.27752772 8.21238869,14.8955118 C8.21238869,19.6244218 11.4173902,23.5996578 15.7597026,24.7394258 C16.1783531,24.8493129 16.6075751,24.9328437 17.0455157,24.9881525" transform="rotate(-44.5 18.262 14.855)"/>
    </g>
  </g>
</svg>
