<?xml version="1.0" encoding="UTF-8"?><!DOCTYPE svg PUBLIC "-//W3C//DTD SVG 1.1//EN" "http://www.w3.org/Graphics/SVG/1.1/DTD/svg11.dtd"><svg xmlns="http://www.w3.org/2000/svg"><symbol id="icon-decor" viewBox="0 0 20 13">
    <path fill-rule="evenodd" d="M19.643 9.673l-6.005-3.757L10.065 13h-.216L6.588 6.349 8.34 5.307l1.64 3.482 1.944-3.945-.002-.002.732-1.535 4.007 2.376L14.864.287 16.937 0 20 9.685l-.357-.012zM10 3.694L.357 9.673 0 9.685 3.063 0l2.074.287-1.798 5.396 6.539-3.878h.244l2.033 1.206-.713 1.542L10 3.694z"/>
</symbol><symbol id="icon-facebook" viewBox="0 0 10 19">
    <title>
        facebook
    </title>
    <path d="M9.766.157v2.946H8.014c-.64 0-1.071.134-1.295.402-.223.268-.335.67-.335 1.205v2.11h3.27l-.435 3.303H6.384v8.471H2.97v-8.47H.123V6.82H2.97V4.387c0-1.384.387-2.457 1.161-3.22C4.904.404 5.934.023 7.222.023c1.093 0 1.941.045 2.544.134z" fill-rule="evenodd"/>
</symbol></svg>