<svg xmlns:xlink="http://www.w3.org/1999/xlink" width="140" height="200" viewBox="0 0 140 200">
  <defs>
    <polygon id="board-a" points="0 0 140 0 140 200 28 200 0 200"/>
  </defs>
  <g fill="none" fill-rule="evenodd">
    <use fill="#FFF" xlink:href="#board-a"/>
    <path stroke="#979797" stroke-width="2" d="M1,1 L1,199 L139,199 L139,1 L1,1 Z"/>
    <g transform="translate(7 20)">
      <path stroke="#4A90E2" d="M19.8863203,19.6632956 C22.9379063,17.8653939 25,14.4355516 25,10.5 C25,4.70101013 20.5228475,0 15,0 C9.4771525,0 5,4.70101013 5,10.5 C5,14.1290684 6.7534262,17.3281254 9.41925723,19.2140986"/>
      <g transform="translate(0 11)">
        <rect width="14" height="55" fill="#FFF" stroke="#979797"/>
        <rect width="14" height="1" y="14" fill="#D0021B"/>
        <path fill="#383737" d="M10.5,22 L11,22 L11,36 L3,36 L3,22 L3.5,22 C2.67157288,22 2,21.3284271 2,20.5 C2,19.6715729 2.67157288,19 3.5,19 L10.5,19 C11.3284271,19 12,19.6715729 12,20.5 C12,21.3284271 11.3284271,22 10.5,22 Z"/>
        <circle cx="7" cy="5" r="2" stroke="#979797"/>
        <circle cx="7" cy="50" r="2" stroke="#979797"/>
      </g>
      <g transform="translate(16 11)">
        <rect width="14" height="55" fill="#FFF" stroke="#979797"/>
        <rect width="14" height="1" y="14" fill="#D0021B"/>
        <path fill="#383737" d="M10.5,22 L11,22 L11,36 L3,36 L3,22 L3.5,22 C2.67157288,22 2,21.3284271 2,20.5 C2,19.6715729 2.67157288,19 3.5,19 L10.5,19 C11.3284271,19 12,19.6715729 12,20.5 C12,21.3284271 11.3284271,22 10.5,22 Z"/>
        <circle cx="7" cy="5" r="2" stroke="#979797"/>
        <circle cx="7" cy="50" r="2" stroke="#979797"/>
      </g>
    </g>
    <g transform="translate(7 114)">
      <path stroke="#4A90E2" d="M19.8863203,19.6632956 C22.9379063,17.8653939 25,14.4355516 25,10.5 C25,4.70101013 20.5228475,0 15,0 C9.4771525,0 5,4.70101013 5,10.5 C5,14.1290684 6.7534262,17.3281254 9.41925723,19.2140986"/>
      <g transform="translate(0 11)">
        <rect width="14" height="55" fill="#FFF" stroke="#979797"/>
        <rect width="14" height="1" y="14" fill="#D0021B"/>
        <path fill="#383737" d="M10.5,22 L11,22 L11,36 L3,36 L3,22 L3.5,22 C2.67157288,22 2,21.3284271 2,20.5 C2,19.6715729 2.67157288,19 3.5,19 L10.5,19 C11.3284271,19 12,19.6715729 12,20.5 C12,21.3284271 11.3284271,22 10.5,22 Z"/>
        <circle cx="7" cy="5" r="2" stroke="#979797"/>
        <circle cx="7" cy="50" r="2" stroke="#979797"/>
      </g>
      <g transform="translate(16 11)">
        <rect width="14" height="55" fill="#FFF" stroke="#979797"/>
        <rect width="14" height="1" y="14" fill="#D0021B"/>
        <path fill="#383737" d="M10.5,22 L11,22 L11,36 L3,36 L3,22 L3.5,22 C2.67157288,22 2,21.3284271 2,20.5 C2,19.6715729 2.67157288,19 3.5,19 L10.5,19 C11.3284271,19 12,19.6715729 12,20.5 C12,21.3284271 11.3284271,22 10.5,22 Z"/>
        <circle cx="7" cy="5" r="2" stroke="#979797"/>
        <circle cx="7" cy="50" r="2" stroke="#979797"/>
      </g>
    </g>
    <g transform="translate(71 20)">
      <path stroke="#4A90E2" d="M19.8863203,19.6632956 C22.9379063,17.8653939 25,14.4355516 25,10.5 C25,4.70101013 20.5228475,0 15,0 C9.4771525,0 5,4.70101013 5,10.5 C5,14.1290684 6.7534262,17.3281254 9.41925723,19.2140986"/>
      <g transform="translate(0 11)">
        <rect width="14" height="55" fill="#FFF" stroke="#979797"/>
        <rect width="14" height="1" y="14" fill="#D0021B"/>
        <path fill="#383737" d="M10.5,22 L11,22 L11,36 L3,36 L3,22 L3.5,22 C2.67157288,22 2,21.3284271 2,20.5 C2,19.6715729 2.67157288,19 3.5,19 L10.5,19 C11.3284271,19 12,19.6715729 12,20.5 C12,21.3284271 11.3284271,22 10.5,22 Z"/>
        <circle cx="7" cy="5" r="2" stroke="#979797"/>
        <circle cx="7" cy="50" r="2" stroke="#979797"/>
      </g>
      <g transform="translate(16 11)">
        <rect width="14" height="55" fill="#FFF" stroke="#979797"/>
        <rect width="14" height="1" y="14" fill="#D0021B"/>
        <path fill="#383737" d="M10.5,22 L11,22 L11,36 L3,36 L3,22 L3.5,22 C2.67157288,22 2,21.3284271 2,20.5 C2,19.6715729 2.67157288,19 3.5,19 L10.5,19 C11.3284271,19 12,19.6715729 12,20.5 C12,21.3284271 11.3284271,22 10.5,22 Z"/>
        <circle cx="7" cy="5" r="2" stroke="#979797"/>
        <circle cx="7" cy="50" r="2" stroke="#979797"/>
      </g>
    </g>
    <g transform="translate(71 114)">
      <path stroke="#4A90E2" d="M19.8863203,19.6632956 C22.9379063,17.8653939 25,14.4355516 25,10.5 C25,4.70101013 20.5228475,0 15,0 C9.4771525,0 5,4.70101013 5,10.5 C5,14.1290684 6.7534262,17.3281254 9.41925723,19.2140986"/>
      <g transform="translate(0 11)">
        <rect width="14" height="55" fill="#FFF" stroke="#979797"/>
        <rect width="14" height="1" y="14" fill="#D0021B"/>
        <path fill="#383737" d="M10.5,22 L11,22 L11,36 L3,36 L3,22 L3.5,22 C2.67157288,22 2,21.3284271 2,20.5 C2,19.6715729 2.67157288,19 3.5,19 L10.5,19 C11.3284271,19 12,19.6715729 12,20.5 C12,21.3284271 11.3284271,22 10.5,22 Z"/>
        <circle cx="7" cy="5" r="2" stroke="#979797"/>
        <circle cx="7" cy="50" r="2" stroke="#979797"/>
      </g>
      <g transform="translate(16 11)">
        <rect width="14" height="55" fill="#FFF" stroke="#979797"/>
        <rect width="14" height="1" y="14" fill="#D0021B"/>
        <path fill="#383737" d="M10.5,22 L11,22 L11,36 L3,36 L3,22 L3.5,22 C2.67157288,22 2,21.3284271 2,20.5 C2,19.6715729 2.67157288,19 3.5,19 L10.5,19 C11.3284271,19 12,19.6715729 12,20.5 C12,21.3284271 11.3284271,22 10.5,22 Z"/>
        <circle cx="7" cy="5" r="2" stroke="#979797"/>
        <circle cx="7" cy="50" r="2" stroke="#979797"/>
      </g>
    </g>
    <g transform="translate(39 20)">
      <path stroke="#4A90E2" d="M19.8863203,19.6632956 C22.9379063,17.8653939 25,14.4355516 25,10.5 C25,4.70101013 20.5228475,0 15,0 C9.4771525,0 5,4.70101013 5,10.5 C5,14.1290684 6.7534262,17.3281254 9.41925723,19.2140986"/>
      <g transform="translate(0 11)">
        <rect width="14" height="55" fill="#FFF" stroke="#979797"/>
        <rect width="14" height="1" y="14" fill="#D0021B"/>
        <path fill="#383737" d="M10.5,22 L11,22 L11,36 L3,36 L3,22 L3.5,22 C2.67157288,22 2,21.3284271 2,20.5 C2,19.6715729 2.67157288,19 3.5,19 L10.5,19 C11.3284271,19 12,19.6715729 12,20.5 C12,21.3284271 11.3284271,22 10.5,22 Z"/>
        <circle cx="7" cy="5" r="2" stroke="#979797"/>
        <circle cx="7" cy="50" r="2" stroke="#979797"/>
      </g>
      <g transform="translate(16 11)">
        <rect width="14" height="55" fill="#FFF" stroke="#979797"/>
        <rect width="14" height="1" y="14" fill="#D0021B"/>
        <path fill="#383737" d="M10.5,22 L11,22 L11,36 L3,36 L3,22 L3.5,22 C2.67157288,22 2,21.3284271 2,20.5 C2,19.6715729 2.67157288,19 3.5,19 L10.5,19 C11.3284271,19 12,19.6715729 12,20.5 C12,21.3284271 11.3284271,22 10.5,22 Z"/>
        <circle cx="7" cy="5" r="2" stroke="#979797"/>
        <circle cx="7" cy="50" r="2" stroke="#979797"/>
      </g>
    </g>
    <g transform="translate(39 114)">
      <path stroke="#4A90E2" d="M19.8863203,19.6632956 C22.9379063,17.8653939 25,14.4355516 25,10.5 C25,4.70101013 20.5228475,0 15,0 C9.4771525,0 5,4.70101013 5,10.5 C5,14.1290684 6.7534262,17.3281254 9.41925723,19.2140986"/>
      <g transform="translate(0 11)">
        <rect width="14" height="55" fill="#FFF" stroke="#979797"/>
        <rect width="14" height="1" y="14" fill="#D0021B"/>
        <path fill="#383737" d="M10.5,22 L11,22 L11,36 L3,36 L3,22 L3.5,22 C2.67157288,22 2,21.3284271 2,20.5 C2,19.6715729 2.67157288,19 3.5,19 L10.5,19 C11.3284271,19 12,19.6715729 12,20.5 C12,21.3284271 11.3284271,22 10.5,22 Z"/>
        <circle cx="7" cy="5" r="2" stroke="#979797"/>
        <circle cx="7" cy="50" r="2" stroke="#979797"/>
      </g>
      <g transform="translate(16 11)">
        <rect width="14" height="55" fill="#FFF" stroke="#979797"/>
        <rect width="14" height="1" y="14" fill="#D0021B"/>
        <path fill="#383737" d="M10.5,22 L11,22 L11,36 L3,36 L3,22 L3.5,22 C2.67157288,22 2,21.3284271 2,20.5 C2,19.6715729 2.67157288,19 3.5,19 L10.5,19 C11.3284271,19 12,19.6715729 12,20.5 C12,21.3284271 11.3284271,22 10.5,22 Z"/>
        <circle cx="7" cy="5" r="2" stroke="#979797"/>
        <circle cx="7" cy="50" r="2" stroke="#979797"/>
      </g>
    </g>
    <g transform="translate(103 20)">
      <path stroke="#4A90E2" d="M19.8863203,19.6632956 C22.9379063,17.8653939 25,14.4355516 25,10.5 C25,4.70101013 20.5228475,0 15,0 C9.4771525,0 5,4.70101013 5,10.5 C5,14.1290684 6.7534262,17.3281254 9.41925723,19.2140986"/>
      <g transform="translate(0 11)">
        <rect width="14" height="55" fill="#FFF" stroke="#979797"/>
        <rect width="14" height="1" y="14" fill="#D0021B"/>
        <path fill="#383737" d="M10.5,22 L11,22 L11,36 L3,36 L3,22 L3.5,22 C2.67157288,22 2,21.3284271 2,20.5 C2,19.6715729 2.67157288,19 3.5,19 L10.5,19 C11.3284271,19 12,19.6715729 12,20.5 C12,21.3284271 11.3284271,22 10.5,22 Z"/>
        <circle cx="7" cy="5" r="2" stroke="#979797"/>
        <circle cx="7" cy="50" r="2" stroke="#979797"/>
      </g>
      <g transform="translate(16 11)">
        <rect width="14" height="55" fill="#FFF" stroke="#979797"/>
        <rect width="14" height="1" y="14" fill="#D0021B"/>
        <path fill="#383737" d="M10.5,22 L11,22 L11,36 L3,36 L3,22 L3.5,22 C2.67157288,22 2,21.3284271 2,20.5 C2,19.6715729 2.67157288,19 3.5,19 L10.5,19 C11.3284271,19 12,19.6715729 12,20.5 C12,21.3284271 11.3284271,22 10.5,22 Z"/>
        <circle cx="7" cy="5" r="2" stroke="#979797"/>
        <circle cx="7" cy="50" r="2" stroke="#979797"/>
      </g>
    </g>
    <g transform="translate(103 114)">
      <path stroke="#4A90E2" d="M19.8863203,19.6632956 C22.9379063,17.8653939 25,14.4355516 25,10.5 C25,4.70101013 20.5228475,0 15,0 C9.4771525,0 5,4.70101013 5,10.5 C5,14.1290684 6.7534262,17.3281254 9.41925723,19.2140986"/>
      <g transform="translate(0 11)">
        <rect width="14" height="55" fill="#FFF" stroke="#979797"/>
        <rect width="14" height="1" y="14" fill="#D0021B"/>
        <path fill="#383737" d="M10.5,22 L11,22 L11,36 L3,36 L3,22 L3.5,22 C2.67157288,22 2,21.3284271 2,20.5 C2,19.6715729 2.67157288,19 3.5,19 L10.5,19 C11.3284271,19 12,19.6715729 12,20.5 C12,21.3284271 11.3284271,22 10.5,22 Z"/>
        <circle cx="7" cy="5" r="2" stroke="#979797"/>
        <circle cx="7" cy="50" r="2" stroke="#979797"/>
      </g>
      <g transform="translate(16 11)">
        <rect width="14" height="55" fill="#FFF" stroke="#979797"/>
        <rect width="14" height="1" y="14" fill="#D0021B"/>
        <path fill="#383737" d="M10.5,22 L11,22 L11,36 L3,36 L3,22 L3.5,22 C2.67157288,22 2,21.3284271 2,20.5 C2,19.6715729 2.67157288,19 3.5,19 L10.5,19 C11.3284271,19 12,19.6715729 12,20.5 C12,21.3284271 11.3284271,22 10.5,22 Z"/>
        <circle cx="7" cy="5" r="2" stroke="#979797"/>
        <circle cx="7" cy="50" r="2" stroke="#979797"/>
      </g>
    </g>
  </g>
</svg>
