<?xml version="1.0" encoding="UTF-8"?><svg version="1.1" viewBox="0 0 64 64" xmlns="http://www.w3.org/2000/svg" xmlns:xlink="http://www.w3.org/1999/xlink"><!--Generated by IJSVG (https://github.com/curthard89/IJSVG)--><g fill="#FF7C1C"><path d="M54,28h-54v-28h54v28Zm-52,-2h50v-24h-50v24Z" transform="translate(0, 23)"></path><path d="M54,28h-9v-2h7v-24h-50v7h-2v-9h54Z" transform="translate(10, 13)"></path><path d="M42,20h-37v-1c0,-1.558 -0.484,-3 -4,-3h-1v-12h1c3.516,0 4,-1.442 4,-3v-1h37v1c0,2.479 1.632,3 3,3h1v12h-1c-1.368,0 -3,0.521 -3,3v1Zm-35.073,-2h33.143c0.361,-2.481 2.084,-3.63 3.931,-3.923v-8.154c-1.847,-0.292 -3.569,-1.441 -3.931,-3.923h-33.143c-0.281,1.839 -1.459,3.668 -4.927,3.96v8.08c3.468,0.292 4.646,2.121 4.927,3.96Z" transform="translate(4, 27)"></path><path d="M6,12c-3.309,0 -6,-2.691 -6,-6c0,-3.309 2.691,-6 6,-6c3.309,0 6,2.691 6,6c0,3.309 -2.691,6 -6,6Zm0,-10c-2.206,0 -4,1.794 -4,4c0,2.206 1.794,4 4,4c2.206,0 4,-1.794 4,-4c0,-2.206 -1.794,-4 -4,-4Z" transform="translate(21, 31)"></path></g></svg>