<?xml version="1.0" encoding="UTF-8"?><svg version="1.1" viewBox="0 0 64 64" xmlns="http://www.w3.org/2000/svg" xmlns:xlink="http://www.w3.org/1999/xlink"><!--Generated by IJSVG (https://github.com/curthard89/IJSVG)--><g fill="#FF7C1C"><path d="M40.382,34.845l-4.15,-4.15l7.559,-7.436h3.591c5.019,0 11,-2.342 11,-13.5v-1.573l-8.778,4.115l-3.038,-3.164l3.84,-8.878h-1.524c-11.158,-4.44089e-16 -13.5,6.011 -13.5,11v3.59l-7.442,7.554l-12.144,-12.144l3.198,-3.198l-11.767,-7.061l-3.104,3.104l7.061,11.768l3.198,-3.199l12.154,12.154l-24.366,24.73l-0.178,0.18l-1.992,6.831l2.968,2.793l6.857,-1.696l24.98,-24.567l4.163,4.161l-3,3l20.414,20.414l7.414,-7.414l-20.414,-20.414l-3,3Zm-33.741,-31.431l0.896,-0.896l8.232,4.939l-4.189,4.189l-4.939,-8.232Zm2.173,51.44l-5.268,1.304l-1.282,-1.207l1.508,-5.169l33.61,-34.113v-4.41c0,-5.6 3.261,-8.521 9.958,-8.896l-3.142,7.236l4.962,5.117l7.174,-3.362c-0.405,6.575 -3.412,9.905 -8.952,9.905h-4.409l-34.159,33.595Zm47.568,1.991l-17.586,-17.586l4.586,-4.586l17.586,17.586l-4.586,4.586Z" transform="translate(0.618, 2.741)"></path></g></svg>