<?xml version="1.0" encoding="UTF-8"?><!DOCTYPE svg PUBLIC "-//W3C//DTD SVG 1.1//EN" "http://www.w3.org/Graphics/SVG/1.1/DTD/svg11.dtd"><svg xmlns="http://www.w3.org/2000/svg"><symbol id="icon-decor" viewBox="0 0 20 13">
    <path fill-rule="evenodd" fill="#00AAEF" d="M19.643 9.673l-6.005-3.757L10.065 13h-.216L6.588 6.349 8.34 5.307l1.64 3.482 1.944-3.945-.002-.002.732-1.535 4.007 2.376L14.864.287 16.937 0 20 9.685l-.357-.012zM10 3.694L.357 9.673 0 9.685 3.063 0l2.074.287-1.798 5.396 6.539-3.878h.244l2.033 1.206-.713 1.542L10 3.694z"/>
</symbol><symbol id="icon-facebook" viewBox="0 0 24 24">
    <path d="M13.85 7.864V5.796c0-.31.014-.55.043-.72a1.4 1.4 0 0 1 .197-.503c.102-.165.267-.28.495-.342.228-.064.532-.095.91-.095h2.068V0h-3.305c-1.913 0-3.287.454-4.122 1.361-.835.908-1.252 2.246-1.252 4.013v2.49H6.408V12h2.475v12h4.967V12h3.305l.437-4.136H13.85z" fill="#FFF"/>
</symbol><symbol id="icon-logo" viewBox="0 0 333 109">
    <g fill="none" fill-rule="evenodd">
        <path fill="#FFF" d="M87.983 78.208c8.896 0 15.296-4.992 15.296-12.672 0-6.976-4.608-10.624-14.592-12.8-9.856-2.112-12.16-4.48-12.16-8.704 0-4.16 3.712-7.36 9.536-7.36 4.608 0 8.768 1.472 12.928 4.864l2.944-3.904c-4.544-3.648-9.216-5.504-15.744-5.504-8.512 0-14.72 5.184-14.72 12.224 0 7.488 4.736 10.816 15.04 13.056C95.92 59.392 98.16 61.76 98.16 65.92c0 4.544-3.968 7.744-9.984 7.744-6.208 0-10.688-2.112-15.36-6.336L69.68 71.04c5.376 4.8 11.2 7.168 18.304 7.168zm30.6-.64h5.056v-19.52h24.256V53.44H123.64v-16h27.136v-4.672h-32.192v44.8zm46.984 0h32.704V72.96h-27.648V57.28h24.448v-4.608h-24.448V37.376h27.328v-4.608h-32.384v44.8zm47.88 0v-44.8h19.264c5.504 0 9.92 1.664 12.736 4.48 2.176 2.176 3.456 5.312 3.456 8.96 0 7.424-5.12 11.776-12.16 13.056l13.76 18.304h-6.208L231.303 60.16h-12.8v17.408h-5.056zm5.056-21.952h13.76c6.72 0 11.52-3.456 11.52-9.344 0-5.504-4.224-8.832-11.456-8.832h-13.824v18.176zm46.664 21.952h5.056v-44.8h-5.056v44.8zm43.976.768c-13.632 0-22.784-10.688-22.784-23.168 0-12.352 9.28-23.168 22.912-23.168s22.784 10.688 22.784 23.168c0 12.352-9.28 23.168-22.912 23.168zm.128-4.672c10.24 0 17.536-8.192 17.536-18.496 0-10.176-7.424-18.496-17.664-18.496-10.24 0-17.536 8.192-17.536 18.496 0 10.176 7.424 18.496 17.664 18.496z"/>
        <path stroke="#FFF" stroke-linecap="round" stroke-width="6" d="M85.36 14.18a51.284 51.284 0 0 0-5.6-3.705C60.41-.575 35.445 1.942 18.893 18.208-1.106 37.86-1.251 70.142 18.569 90.31c16.683 16.977 42.194 19.96 61.778 8.758a50.162 50.162 0 0 0 5.486-3.636"/>
    </g>
</symbol><symbol id="icon-twitter" viewBox="0 0 24 24">
    <path d="M24 4.569a9.815 9.815 0 0 1-2.832.761c1.066-.64 1.787-1.543 2.162-2.71a9.655 9.655 0 0 1-3.122 1.188c-.974-1.036-2.172-1.554-3.594-1.554-1.36 0-2.52.48-3.48 1.44-.959.959-1.439 2.118-1.439 3.479 0 .365.041.74.122 1.127A13.706 13.706 0 0 1 6.16 6.784a13.945 13.945 0 0 1-4.485-3.632 4.819 4.819 0 0 0-.67 2.483c0 .842.198 1.624.594 2.345.396.72.929 1.304 1.599 1.751a4.88 4.88 0 0 1-2.223-.625v.061c0 1.188.373 2.231 1.119 3.13a4.84 4.84 0 0 0 2.825 1.698 5.096 5.096 0 0 1-1.295.167c-.284 0-.594-.025-.929-.075a4.813 4.813 0 0 0 1.736 2.428 4.8 4.8 0 0 0 2.863.983c-1.786 1.4-3.822 2.1-6.106 2.1-.437 0-.833-.019-1.188-.06 2.284 1.472 4.802 2.208 7.553 2.208 1.747 0 3.386-.276 4.919-.83 1.533-.553 2.842-1.294 3.929-2.223a14.878 14.878 0 0 0 2.81-3.206 14.294 14.294 0 0 0 1.758-3.784 13.98 13.98 0 0 0 .564-4.591c.964-.7 1.787-1.548 2.467-2.543z" fill="#FFF"/>
</symbol></svg>